<svg width="42" height="30" viewBox="0 0 42 30" fill="none" xmlns="http://www.w3.org/2000/svg">
<path d="M6.08204 18.5068L4.18592 22.2297H0.0599365L11.2118 0.000488281L18.6562 14.8386H14.4735L11.2118 8.30882L7.92211 14.8386L6.08139 18.5068H6.08204Z" fill="#282625"/>
<path d="M22.3637 22.2302H18.2097L16.369 18.5347H20.495L22.3637 22.2302Z" fill="#DC0C15"/>
<path d="M36.5055 16.0058L40.2137 17.2283C39.7118 17.989 39.1114 18.6801 38.429 19.2849C37.7609 19.8988 37.0217 20.4302 36.2265 20.8686C35.4326 21.3201 34.5787 21.6572 33.6896 21.869C32.7817 22.1172 31.8437 22.2386 30.9018 22.2302C27.807 22.2302 25.2135 21.1187 23.0384 18.951C20.8639 16.7833 19.7487 14.2005 19.7487 11.1156C19.7487 8.03068 20.8352 5.44788 23.0384 3.28018C25.1848 1.08455 27.807 0.000373563 30.9018 0.000373563C32.3951 -0.0119688 33.8748 0.281648 35.2494 0.863037C36.5811 1.43793 37.7922 2.25837 38.8188 3.28018L36.1418 5.89156C34.7723 4.47674 32.8742 3.69138 30.9018 3.72451C28.9197 3.68878 27.0112 4.47284 25.6313 5.89156C24.1823 7.33626 23.4849 9.08757 23.4849 11.1156C23.4849 13.1436 24.1823 14.9229 25.6313 16.3669C27.0803 17.811 28.8656 18.5074 30.9018 18.5074C31.9669 18.5132 33.0209 18.2956 33.996 17.8682C34.9503 17.4225 35.8035 16.7892 36.5055 16.0064V16.0058Z" fill="#282625"/>
<path d="M41.8269 9.34026H38.0516C38.1715 9.80992 38.2484 10.2893 38.281 10.7726C38.3234 11.8328 38.1415 12.8903 37.7479 13.8764C37.0061 15.7648 35.7051 17.1672 33.8265 17.9844C31.948 18.8016 30.0323 18.8003 28.1375 18.0598C26.2427 17.3192 24.8615 16.0337 24.0409 14.1603C23.2189 12.3628 23.1824 10.3062 23.9398 8.48085C24.6288 6.63794 26.055 5.16336 27.8774 4.40853L26.4141 0.972168C25.0844 1.55161 23.8766 2.37594 22.8533 3.40166C21.809 4.46569 20.9949 5.73176 20.4611 7.12254C19.3315 9.99375 19.3876 12.8214 20.654 15.6141C21.8749 18.4482 23.9177 20.4113 26.7733 21.5273C29.6543 22.6531 32.4753 22.5608 35.2938 21.3337C38.1122 20.106 40.097 18.1079 41.2259 15.2366C41.5779 14.3662 41.8073 13.4509 41.9077 12.5174C42.0335 11.6151 42.0309 10.6992 41.8986 9.79758C41.8777 9.64427 41.8523 9.49227 41.8269 9.33961V9.34026Z" fill="#282625"/>
<path d="M35.0448 9.2819L41.8269 9.34036L39.7946 12.9775H30.9019L35.0454 9.28125L35.0448 9.2819Z" fill="#282625"/>
<path d="M1.53567 25.6704H2.41627L3.84766 29.9162H3.1613L2.78194 28.7501H1.08136L0.68636 29.9162H0L1.53567 25.6704ZM1.21563 28.3227H2.64702L1.96717 26.2706H1.95283L1.21498 28.3227H1.21563Z" fill="#DC0C15"/>
<path d="M13.0474 26.8481C13.0102 26.4025 12.816 26.016 12.1596 26.016C11.2503 26.016 11.1304 26.8124 11.1304 27.7933C11.1304 28.7742 11.2503 29.5719 12.1596 29.5719C13.0689 29.5719 13.1367 28.7034 13.1367 28.1382H12.0847V27.7108H13.7324V29.9161H13.241V29.3387H13.226C13.0845 29.7011 12.6667 29.9986 12.0775 29.9986C10.6839 29.9986 10.4447 28.9346 10.4447 27.7933C10.4447 26.7234 10.6904 25.5879 12.1596 25.5879C13.6288 25.5879 13.7324 26.6285 13.7324 26.8481H13.0467H13.0474Z" fill="#282625"/>
<path d="M20.8229 25.6704H21.4786V29.9162H20.8229V25.6704Z" fill="#282625"/>
<path d="M31.9023 28.4598C31.8424 29.2621 31.4474 29.9994 30.2839 29.9994C28.7697 29.9994 28.569 28.8639 28.569 27.794C28.569 26.7241 28.8147 25.5886 30.2839 25.5886C31.3653 25.5886 31.8274 26.0771 31.8567 26.9086H31.171C31.1488 26.4279 30.9624 26.0174 30.2832 26.0174C29.374 26.0174 29.254 26.8138 29.254 27.7946C29.254 28.7755 29.374 29.5732 30.2832 29.5732C31.0817 29.5732 31.1932 28.9782 31.216 28.4618H31.9017L31.9023 28.4598Z" fill="#282625"/>
<path d="M41.0714 26.7709C41.0714 26.3253 40.87 26.0161 40.2436 26.0161C39.6844 26.0161 39.3637 26.2538 39.3637 26.7053C39.3637 27.9012 41.8771 27.1873 41.8771 28.7398C41.8771 29.7207 40.9743 30 40.2215 30C38.9759 30 38.6108 29.4888 38.6108 28.5852H39.2672C39.2672 29.0607 39.3115 29.5726 40.2664 29.5726C40.7879 29.5726 41.1901 29.2751 41.1901 28.8236C41.1901 27.6225 38.678 28.3176 38.678 26.7598C38.678 26.3675 38.8866 25.5886 40.2358 25.5886C41.2579 25.5886 41.705 25.9868 41.7272 26.7715H41.0708L41.0714 26.7709Z" fill="#282625"/>
</svg>
