<svg width="30" height="30" viewBox="0 0 30 30" fill="none" xmlns="http://www.w3.org/2000/svg">
<path fill-rule="evenodd" clip-rule="evenodd" d="M3.50455 10.4415C3.15437 13.6951 3.16998 17.4476 3.65726 20.688C3.92688 22.481 5.39022 23.8555 7.19655 24.0125L9.08435 24.1766C13.0207 24.5188 16.9792 24.5188 20.9155 24.1766L22.8033 24.0125C24.6097 23.8555 26.073 22.481 26.3426 20.688C26.8299 17.4476 26.8455 13.6953 26.4954 10.4417C26.4501 10.0645 26.3992 9.68777 26.3426 9.31171C26.073 7.51872 24.6097 6.14416 22.8033 5.98714L20.9155 5.82304C16.9792 5.48086 13.0207 5.48086 9.08434 5.82304L7.19655 5.98714C5.39022 6.14416 3.92688 7.51872 3.65726 9.31171C3.60072 9.6877 3.54981 10.0643 3.50455 10.4415ZM9.24672 7.69099C13.075 7.35821 16.9249 7.35821 20.7532 7.69099L22.6409 7.8551C23.5839 7.93706 24.3477 8.65458 24.4885 9.59053C24.5031 9.68772 24.5173 9.78496 24.5311 9.88225L17.5799 13.7441C15.9754 14.6354 14.0244 14.6354 12.4199 13.7441L5.46875 9.88229C5.48257 9.78499 5.49679 9.68774 5.51141 9.59053C5.65216 8.65458 6.41602 7.93706 7.35893 7.8551L9.24672 7.69099ZM24.7606 11.8997C25.003 14.7344 24.9123 17.5905 24.4885 20.4092C24.3477 21.3451 23.5839 22.0626 22.641 22.1446L20.7532 22.3087C16.9249 22.6415 13.075 22.6415 9.24672 22.3087L7.35893 22.1446C6.41602 22.0626 5.65216 21.3451 5.51141 20.4092C5.08755 17.5905 4.99685 14.7344 5.23931 11.8998L11.5093 15.3831C13.6801 16.5891 16.3197 16.5891 18.4905 15.3831L24.7606 11.8997Z" fill="white"/>
</svg>
