<svg width="30" height="30" viewBox="0 0 30 30" fill="none" xmlns="http://www.w3.org/2000/svg">
<path d="M12.4992 11.2499C12.4992 9.86921 13.6185 8.74992 14.9992 8.74992C16.3799 8.74992 17.4992 9.86921 17.4992 11.2499C17.4992 12.6306 16.3799 13.7499 14.9992 13.7499C13.6185 13.7499 12.4992 12.6306 12.4992 11.2499Z" fill="white"/>
<path d="M13.7492 15.6249C11.6781 15.6249 9.99919 17.3039 9.99919 19.3749C9.99919 20.0653 10.5588 20.6249 11.2492 20.6249H18.7492C19.4395 20.6249 19.9992 20.0653 19.9992 19.3749C19.9992 17.3039 18.3203 15.6249 16.2492 15.6249H13.7492Z" fill="white"/>
<path fill-rule="evenodd" clip-rule="evenodd" d="M9.4286 3.60327C13.1234 3.07235 16.875 3.07235 20.5698 3.60327C22.4017 3.86651 23.813 5.35324 23.9807 7.19631L24.1394 8.94098C24.5061 12.9719 24.5061 17.0279 24.1394 21.0589L23.9807 22.8035C23.813 24.6466 22.4017 26.1333 20.5698 26.3966C16.875 26.9275 13.1234 26.9275 9.4286 26.3966C7.59674 26.1333 6.18537 24.6466 6.01771 22.8035L5.859 21.0589C5.49231 17.0279 5.49231 12.972 5.859 8.94098L6.01771 7.19632C6.18537 5.35325 7.59674 3.86651 9.4286 3.60327ZM20.3031 5.45921C16.7852 4.9537 13.2132 4.9537 9.6953 5.45921C8.72305 5.59892 7.97398 6.38799 7.885 7.36618L7.72629 9.11085C7.36988 13.0288 7.36988 16.971 7.72629 20.889L7.885 22.6337C7.97398 23.6119 8.72305 24.4009 9.69529 24.5406C13.2132 25.0461 16.7852 25.0461 20.3031 24.5406C21.2754 24.4009 22.0244 23.6119 22.1134 22.6337L22.2721 20.889C22.6285 16.971 22.6285 13.0288 22.2721 9.11084L22.1134 7.36618C22.0244 6.38799 21.2754 5.59892 20.3031 5.45921Z" fill="white"/>
</svg>
