<svg width="30" height="30" viewBox="0 0 30 30" fill="none" xmlns="http://www.w3.org/2000/svg">
<path d="M10 6.25H7.5C6.83696 6.25 6.20107 6.51339 5.73223 6.98223C5.26339 7.45107 5 8.08696 5 8.75V23.75C5 24.413 5.26339 25.0489 5.73223 25.5178C6.20107 25.9866 6.83696 26.25 7.5 26.25H14.6212M22.5 17.5V22.5H27.5M22.5 13.75V8.75C22.5 8.08696 22.2366 7.45107 21.7678 6.98223C21.2989 6.51339 20.663 6.25 20 6.25H17.5" stroke="white" stroke-width="2" stroke-linecap="round" stroke-linejoin="round"/>
<path d="M10 13.75H15M10 18.75H13.75M10 6.25C10 5.58696 10.2634 4.95107 10.7322 4.48223C11.2011 4.01339 11.837 3.75 12.5 3.75H15C15.663 3.75 16.2989 4.01339 16.7678 4.48223C17.2366 4.95107 17.5 5.58696 17.5 6.25C17.5 6.91304 17.2366 7.54893 16.7678 8.01777C16.2989 8.48661 15.663 8.75 15 8.75H12.5C11.837 8.75 11.2011 8.48661 10.7322 8.01777C10.2634 7.54893 10 6.91304 10 6.25ZM17.5 22.5C17.5 23.8261 18.0268 25.0979 18.9645 26.0355C19.9021 26.9732 21.1739 27.5 22.5 27.5C23.8261 27.5 25.0979 26.9732 26.0355 26.0355C26.9732 25.0979 27.5 23.8261 27.5 22.5C27.5 21.1739 26.9732 19.9021 26.0355 18.9645C25.0979 18.0268 23.8261 17.5 22.5 17.5C21.1739 17.5 19.9021 18.0268 18.9645 18.9645C18.0268 19.9021 17.5 21.1739 17.5 22.5Z" stroke="white" stroke-width="2" stroke-linecap="round" stroke-linejoin="round"/>
</svg>
