<svg width="30" height="30" viewBox="0 0 30 30" fill="none" xmlns="http://www.w3.org/2000/svg">
<path fill-rule="evenodd" clip-rule="evenodd" d="M9.06261 8.28855V6.82633C9.06261 5.74352 9.8548 4.82365 10.9256 4.66303L12.4505 4.4343C14.1408 4.18076 15.8594 4.18075 17.5497 4.4343L19.0746 4.66303C20.1454 4.82365 20.9376 5.74352 20.9376 6.82633V8.28855L23.0802 8.4615C24.7206 8.59391 26.0588 9.82909 26.3219 11.4537C26.9034 15.0444 26.9034 18.7053 26.3219 22.2959C26.0588 23.9206 24.7206 25.1558 23.0802 25.2882L20.7403 25.477C16.9197 25.7854 13.0805 25.7854 9.25996 25.477L6.92006 25.2882C5.27957 25.1558 3.9414 23.9206 3.6783 22.2959C3.09682 18.7053 3.09682 15.0444 3.6783 11.4537C3.9414 9.82909 5.27958 8.59391 6.92006 8.4615L9.06261 8.28855ZM12.7286 6.28855C14.2345 6.06267 15.7657 6.06267 17.2716 6.28855L18.7965 6.51729C18.9494 6.54023 19.0626 6.67164 19.0626 6.82633V8.15709C16.3565 8.00274 13.6437 8.00274 10.9376 8.15709V6.82633C10.9376 6.67164 11.0508 6.54023 11.2038 6.51729L12.7286 6.28855ZM9.41081 10.1415C13.131 9.84126 16.8693 9.84126 20.5894 10.1415L22.9293 10.3304C23.7095 10.3934 24.3459 10.9808 24.471 11.7535C24.5489 12.2346 24.6158 12.7171 24.6716 13.2006C18.5746 16.2028 11.4256 16.2028 5.32858 13.2006C5.3844 12.7171 5.45127 12.2346 5.52919 11.7535C5.65431 10.9808 6.29073 10.3934 7.07092 10.3304L9.41081 10.1415ZM5.16122 15.1957C11.4105 18.0378 18.5897 18.0378 24.839 15.1957C24.9581 17.4659 24.8355 19.7456 24.471 21.9962C24.3459 22.7688 23.7095 23.3563 22.9293 23.4192L20.5894 23.6081C16.8692 23.9084 13.131 23.9084 9.41081 23.6081L7.07092 23.4192C6.29073 23.3563 5.65431 22.7688 5.52919 21.9962C5.16472 19.7456 5.04207 17.4659 5.16122 15.1957Z" fill="white"/>
</svg>
