<svg width="30" height="30" viewBox="0 0 30 30" fill="none" xmlns="http://www.w3.org/2000/svg">
<path d="M19.6875 16.25C19.6875 15.7322 19.2678 15.3125 18.75 15.3125H11.25C10.7322 15.3125 10.3125 15.7322 10.3125 16.25C10.3125 16.7678 10.7322 17.1875 11.25 17.1875H18.75C19.2678 17.1875 19.6875 16.7678 19.6875 16.25Z" fill="white"/>
<path d="M19.6875 21.25C19.6875 20.7322 19.2678 20.3125 18.75 20.3125H11.25C10.7322 20.3125 10.3125 20.7322 10.3125 21.25C10.3125 21.7678 10.7322 22.1875 11.25 22.1875H18.75C19.2678 22.1875 19.6875 21.7678 19.6875 21.25Z" fill="white"/>
<path fill-rule="evenodd" clip-rule="evenodd" d="M8.75 2.8125C6.85152 2.8125 5.3125 4.35152 5.3125 6.25V23.75C5.3125 25.6485 6.85152 27.1875 8.75 27.1875H21.25C23.1485 27.1875 24.6875 25.6485 24.6875 23.75V9.95957C24.6875 9.48361 24.5323 9.02063 24.2453 8.64087L20.4981 3.6813C20.0847 3.13412 19.4386 2.8125 18.7528 2.8125H8.75ZM7.1875 6.25C7.1875 5.38705 7.88705 4.6875 8.75 4.6875H17.8125V10.1838C17.8125 10.7016 18.2322 11.1213 18.75 11.1213H22.8125V23.75C22.8125 24.6129 22.1129 25.3125 21.25 25.3125H8.75C7.88705 25.3125 7.1875 24.6129 7.1875 23.75V6.25Z" fill="white"/>
</svg>
