<svg width="30" height="30" viewBox="0 0 30 30" fill="none" xmlns="http://www.w3.org/2000/svg">
<path fill-rule="evenodd" clip-rule="evenodd" d="M16.9481 6.91791C15.8599 5.87372 14.1417 5.87372 13.0535 6.91791L7.27048 12.4671C7.12879 12.603 7.03348 12.7801 6.99806 12.9733C6.3054 16.7506 6.25427 20.6177 6.84682 24.412L6.98748 25.3126H10.708V17.5484C10.708 17.0307 11.1278 16.6109 11.6455 16.6109H18.3561C18.8738 16.6109 19.2936 17.0307 19.2936 17.5484V25.3126H23.0141L23.1548 24.412C23.7474 20.6177 23.6962 16.7506 23.0036 12.9733C22.9681 12.7801 22.8728 12.603 22.7311 12.4671L16.9481 6.91791ZM11.7553 5.56501C13.569 3.82468 16.4326 3.82468 18.2463 5.56501L24.0293 11.1142C24.455 11.5227 24.7414 12.0548 24.8478 12.6351C25.5785 16.6196 25.6324 20.6988 25.0073 24.7013L24.7814 26.1481C24.6879 26.7465 24.1726 27.1876 23.567 27.1876H18.3561C17.8383 27.1876 17.4186 26.7679 17.4186 26.2501V18.4859H12.583V26.2501C12.583 26.7679 12.1633 27.1876 11.6455 27.1876H6.43464C5.82903 27.1876 5.31368 26.7465 5.22023 26.1481L4.99428 24.7013C4.36922 20.6988 4.42315 16.6196 5.15382 12.6351C5.26023 12.0548 5.54659 11.5227 5.9723 11.1142L11.7553 5.56501Z" fill="white"/>
</svg>
