<svg width="30" height="30" viewBox="0 0 30 30" fill="none" xmlns="http://www.w3.org/2000/svg">
<path d="M20.9368 13.7498C20.9368 14.2676 20.517 14.6873 19.9993 14.6873H9.99927C9.4815 14.6873 9.06177 14.2676 9.06177 13.7498C9.06177 13.232 9.4815 12.8123 9.99927 12.8123H19.9993C20.517 12.8123 20.9368 13.232 20.9368 13.7498Z" fill="white"/>
<path fill-rule="evenodd" clip-rule="evenodd" d="M5.48125 10.1832L6.96716 6.12367C7.34163 5.10061 8.24986 4.36752 9.3289 4.21736C13.091 3.69382 16.9076 3.69382 20.6697 4.21736C21.7488 4.36752 22.657 5.10062 23.0315 6.12369L24.5175 10.1835C24.7954 10.6171 24.9868 11.1128 25.0672 11.6472L25.1946 12.4945C25.6943 15.8177 25.6476 19.2004 25.0563 22.5086C24.7941 23.9752 23.5897 25.0892 22.1071 25.2364L20.569 25.3891C16.8649 25.7567 13.1336 25.7567 9.42948 25.3891L7.8914 25.2364C6.4088 25.0892 5.20435 23.9752 4.94219 22.5086C4.35086 19.2004 4.30413 15.8177 4.80388 12.4945L4.93129 11.6472C5.01167 11.1127 5.20319 10.6169 5.48125 10.1832ZM9.58734 6.07447C13.178 5.57479 16.8206 5.57479 20.4113 6.07447C20.8039 6.12911 21.1344 6.39588 21.2707 6.76817L21.9035 8.4969C21.8468 8.48864 21.7897 8.48165 21.7322 8.47594L20.5095 8.35458C16.845 7.99087 13.1535 7.99087 9.489 8.35458L8.26626 8.47594C8.20884 8.48164 8.15179 8.48863 8.09514 8.49688L8.72791 6.76816C8.86418 6.39588 9.19468 6.12911 9.58734 6.07447ZM7.10634 11.126L7.12966 11.1345L7.1586 11.0555C7.46578 10.6607 7.92718 10.3938 8.45145 10.3418L9.67419 10.2204C13.2155 9.86892 16.7829 9.86892 20.3243 10.2204L21.547 10.3418C22.0714 10.3938 22.5329 10.6608 22.8401 11.0557L22.8689 11.1345L22.8921 11.126C23.056 11.3584 23.1686 11.6303 23.213 11.926L23.3404 12.7733C23.8098 15.8945 23.7659 19.0715 23.2105 22.1787C23.096 22.8195 22.5697 23.3063 21.9219 23.3706L20.3838 23.5232C16.8029 23.8786 13.1956 23.8786 9.61467 23.5232L8.07659 23.3706C7.42877 23.3063 6.90249 22.8195 6.78794 22.1787C6.23255 19.0715 6.18867 15.8945 6.65803 12.7733L6.78544 11.926C6.8299 11.6303 6.94243 11.3584 7.10634 11.126Z" fill="white"/>
</svg>
