<svg width="30" height="30" viewBox="0 0 30 30" fill="none" xmlns="http://www.w3.org/2000/svg">
<path fill-rule="evenodd" clip-rule="evenodd" d="M8.74916 4.0625C9.26693 4.0625 9.68666 4.48223 9.68666 5V7.08454C13.2213 6.76975 16.777 6.76975 20.3117 7.08454V5C20.3117 4.48223 20.7314 4.0625 21.2492 4.0625C21.7669 4.0625 22.1867 4.48223 22.1867 5V7.27054C24.053 7.53443 25.5274 9.01059 25.777 10.8935L25.8852 11.7097C26.3402 15.1426 26.3009 18.6231 25.7684 22.0448C25.5047 23.7399 24.1276 25.0418 22.4204 25.2102L20.9292 25.3572C16.9854 25.7462 13.0129 25.7462 9.06907 25.3572L7.57781 25.2102C5.87064 25.0418 4.49356 23.7399 4.2298 22.0448C3.69735 18.6231 3.65805 15.1426 4.1131 11.7097L4.22129 10.8935C4.47088 9.01056 5.94532 7.53439 7.81166 7.27053V5C7.81166 4.48223 8.23139 4.0625 8.74916 4.0625ZM9.30562 9.00351C13.0921 8.6301 16.9061 8.6301 20.6926 9.00351L21.8244 9.11512C22.9079 9.22196 23.7752 10.0607 23.9182 11.1399L24.0264 11.9561C24.0642 12.2413 24.0984 12.5267 24.129 12.8125H5.86924C5.89984 12.5267 5.93404 12.2413 5.97184 11.9561L6.08003 11.1399C6.22309 10.0607 7.09037 9.22196 8.1738 9.11512L9.30562 9.00351ZM5.7202 14.6875C5.59747 17.0476 5.71839 19.4165 6.0825 21.7565C6.2148 22.6067 6.90553 23.2598 7.76183 23.3442L9.25308 23.4913C13.0745 23.8681 16.9237 23.8681 20.7452 23.4913L22.2364 23.3442C23.0927 23.2598 23.7834 22.6067 23.9157 21.7565C24.2799 19.4165 24.4008 17.0476 24.278 14.6875H5.7202Z" fill="white"/>
</svg>
