<svg width="30" height="30" viewBox="0 0 30 30" fill="none" xmlns="http://www.w3.org/2000/svg">
<path d="M10 11.8754C9.13706 11.8754 8.4375 12.5749 8.4375 13.4379C8.4375 14.3008 9.13706 15.0004 10 15.0004C10.8629 15.0004 11.5625 14.3008 11.5625 13.4379C11.5625 12.5749 10.8629 11.8754 10 11.8754Z" fill="white"/>
<path d="M15 11.8754C14.1371 11.8754 13.4375 12.5749 13.4375 13.4379C13.4375 14.3008 14.1371 15.0004 15 15.0004C15.8629 15.0004 16.5625 14.3008 16.5625 13.4379C16.5625 12.5749 15.8629 11.8754 15 11.8754Z" fill="white"/>
<path d="M18.4375 13.4379C18.4375 12.5749 19.1371 11.8754 20 11.8754C20.8629 11.8754 21.5625 12.5749 21.5625 13.4379C21.5625 14.3008 20.8629 15.0004 20 15.0004C19.1371 15.0004 18.4375 14.3008 18.4375 13.4379Z" fill="white"/>
<path fill-rule="evenodd" clip-rule="evenodd" d="M20.1259 5.74134C16.7582 5.45414 13.3728 5.43747 10.0024 5.6915L9.76089 5.7097C6.54676 5.95195 4.0625 8.63049 4.0625 11.8537V22.5004C4.0625 22.8302 4.23583 23.1358 4.51894 23.305C4.80204 23.4743 5.15326 23.4823 5.4438 23.3262L10.3323 20.699C10.5597 20.5768 10.8138 20.5129 11.0719 20.5129H22.2925C23.7076 20.5129 24.9203 19.5011 25.174 18.1089C25.6881 15.2874 25.7287 12.3999 25.2941 9.56504L25.1661 8.72963C24.933 7.20869 23.6887 6.04518 22.1556 5.91443L20.1259 5.74134ZM10.1433 7.5612C13.4138 7.31471 16.6987 7.33088 19.9666 7.60956L21.9963 7.78265C22.6667 7.83982 23.2108 8.34862 23.3127 9.01372L23.4408 9.84913C23.8438 12.4782 23.8061 15.1561 23.3293 17.7728C23.2381 18.2738 22.8017 18.6379 22.2925 18.6379H11.0719C10.504 18.6379 9.94495 18.7786 9.44469 19.0474L5.9375 20.9322V11.8537C5.9375 9.61136 7.66577 7.74793 9.90181 7.5794L10.1433 7.5612Z" fill="white"/>
</svg>
